<svg version="1.1" xmlns="http://www.w3.org/2000/svg" width="647" height="385" viewBox="0 0 647 385" preserveAspectRatio="xMidYMid meet">
<path d="M0 0 C1.1323975 0.73878339 2.2556547 1.49158645 3.375 2.25 C4.00148438 2.66765625 4.62796875 3.0853125 5.2734375 3.515625 C7 5 7 5 7.9765625 6.95703125 C9.24362398 9.48631809 10.79598894 10.68320443 13 12.4375 C16.21719914 15.12814317 17.59461235 17.01806832 19 21 C20.32303717 21.3721042 21.65737935 21.70630173 23 22 C23.70394612 23.31403276 24.36345658 24.6520257 25 26 C26.6222454 27.70993434 28.29413425 29.37347684 30 31 C31.66666667 32.66666667 33.33333333 34.33333333 35 36 C35.68320312 36.67160156 36.36640625 37.34320313 37.0703125 38.03515625 C41.39574767 42.3092727 45.54068682 46.65500691 49.4921875 51.27734375 C50.74099787 52.70409342 52.07946714 54.05178849 53.4375 55.375 C53.953125 55.91125 54.46875 56.4475 55 57 C55 57.66 55 58.32 55 59 C55.5775 59.226875 56.155 59.45375 56.75 59.6875 C59.59591381 61.34761639 60.99841921 63.39187957 63 66 C65.41870973 68.48072793 67.89276773 70.89558964 70.375 73.3125 C73.13467905 76.1378857 75.70699768 79.08032554 78.28515625 82.0703125 C79.77888959 83.75118783 81.31449492 85.32096115 82.9375 86.875 C83.618125 87.57625 84.29875 88.2775 85 89 C85 89.66 85 90.32 85 91 C85.556875 91.226875 86.11375 91.45375 86.6875 91.6875 C94.04867124 95.86546205 99.65858794 104.21625432 105.18359375 110.47265625 C107.96001462 113.61646741 110.72080339 116.72080339 113.6875 119.6875 C116.31642464 122.31642464 118.62058343 125.14470011 121 128 C122.6459651 129.68711423 124.31237149 131.3545622 126 133 C129 136 132 139 135 142 C133.7455037 145.7634889 131.95278233 147.39056445 129 150 C128.278125 150.165 127.55625 150.33 126.8125 150.5 C126.214375 150.665 125.61625 150.83 125 151 C124.29788106 152.65204456 123.63028587 154.31923769 123 156 C122.01 156.33 121.02 156.66 120 157 C119.690625 157.639375 119.38125 158.27875 119.0625 158.9375 C118.711875 159.618125 118.36125 160.29875 118 161 C116.67592331 161.68486725 115.34090759 162.34870203 114 163 C111.39298423 165.47332266 108.94734246 168.05660686 106.5 170.6875 C104.03007754 172.97217828 102.17866178 174.00099201 99 175 C98.62230469 174.55011719 98.24460937 174.10023438 97.85546875 173.63671875 C93.79618996 168.8929714 89.50139759 164.46525457 85.06054688 160.07788086 C81.1680214 156.21287151 77.53348336 152.19211754 74 148 C69.62443791 142.82495249 65.09304193 138.00001784 60.1875 133.3125 C59.465625 132.549375 58.74375 131.78625 58 131 C58 130.34 58 129.68 58 129 C57.40058594 128.73832031 56.80117188 128.47664062 56.18359375 128.20703125 C53.86938236 126.92779812 52.70340555 125.73749558 51.0625 123.6875 C48.00374156 119.97218988 44.71075748 116.5927742 41.1875 113.3125 C40.795625 112.879375 40.40375 112.44625 40 112 C40 111.34 40 110.68 40 110 C39.34 110 38.68 110 38 110 C38 109.34 38 108.68 38 108 C36.68 107.34 35.36 106.68 34 106 C31.69 103.36 29.38 100.72 27 98 C26.67 179.84 26.34 261.68 26 346 C9.5 346 -7 346 -24 346 C-24.33 264.16 -24.66 182.32 -25 98 C-26.65 99.65 -28.3 101.3 -30 103 C-31.485 103.495 -31.485 103.495 -33 104 C-33.71596013 105.30752565 -34.37795672 106.64527332 -35 108 C-38.29953143 112.32519222 -42.10748579 116.20992038 -46 120 C-46.721875 120.763125 -47.44375 121.52625 -48.1875 122.3125 C-48.785625 122.869375 -49.38375 123.42625 -50 124 C-50.66 124 -51.32 124 -52 124 C-52 124.99 -52 125.98 -52 127 C-54.405947 129.68091237 -56.9001088 131.92281135 -59.75 134.125 C-62.25052455 135.87431597 -62.25052455 135.87431597 -63 139 C-63.70125 139.556875 -64.4025 140.11375 -65.125 140.6875 C-68.20750742 143.16690814 -70.5540623 145.86159141 -73.11328125 148.859375 C-74.99906696 150.9989414 -76.96605958 153.00146666 -79 155 C-82.30796963 158.25678248 -85.36836197 161.66102593 -88.40234375 165.171875 C-94.11055276 171.70351759 -94.11055276 171.70351759 -98 173 C-98 173.66 -98 174.32 -98 175 C-101.12688787 173.58378621 -103.53900915 171.87668024 -106.125 169.625 C-107.14980469 168.74714844 -107.14980469 168.74714844 -108.1953125 167.8515625 C-110.01389005 165.98574917 -110.86145072 164.31160005 -112 162 C-113.6635479 161.32558869 -115.33066942 160.6599679 -117 160 C-119.54712389 157.74905331 -121.57071197 155.8838283 -123.0625 152.8125 C-123.371875 152.214375 -123.68125 151.61625 -124 151 C-125.32520503 150.31731862 -126.65812182 149.6492959 -128 149 C-128.33 148.01 -128.66 147.02 -129 146 C-130.32 145.67 -131.64 145.34 -133 145 C-132.40312566 141.65750371 -131.26396123 139.53563658 -129 137 C-128.34 137 -127.68 137 -127 137 C-126.67 136.01 -126.34 135.02 -126 134 C-125.34 134 -124.68 134 -124 134 C-123.72800781 133.41089844 -123.45601562 132.82179687 -123.17578125 132.21484375 C-122.0244625 130.04608053 -120.80016325 128.40493585 -119.1875 126.5625 C-118.70667969 126.00691406 -118.22585937 125.45132813 -117.73046875 124.87890625 C-114.78486734 121.68063474 -111.66655245 118.6569078 -108.5703125 115.60546875 C-103.48278827 110.57483376 -98.65078736 105.43296524 -94 100 C-82.05071315 86.35023772 -82.05071315 86.35023772 -78 85 C-77.31379969 83.67661368 -76.65213539 82.34050052 -76 81 C-74.43955895 78.85832084 -72.79050671 76.96955738 -71 75 C-70.34 75 -69.68 75 -69 75 C-69 74.34 -69 73.68 -69 73 C-68.34 73 -67.68 73 -67 73 C-66.78214844 72.4534375 -66.56429687 71.906875 -66.33984375 71.34375 C-64.56100793 68.23208383 -62.12853193 65.95562899 -59.5625 63.5 C-55.69351641 59.78441289 -55.69351641 59.78441289 -52.27734375 55.65625 C-51.85582031 55.1096875 -51.43429687 54.563125 -51 54 C-50.34 54 -49.68 54 -49 54 C-49 53.34 -49 52.68 -49 52 C-48.34 52 -47.68 52 -47 52 C-46.7525 51.443125 -46.505 50.88625 -46.25 50.3125 C-43.32061919 44.8931455 -38.87561371 40.84110059 -34.53540039 36.55297852 C-33.00131719 35.03677681 -31.46939779 33.51840938 -29.9375 32 C-29.1630957 31.23816406 -29.1630957 31.23816406 -28.37304688 30.4609375 C-25.99001356 28.09308274 -23.82859921 25.78060699 -21.75390625 23.125 C-21.17511719 22.42375 -20.59632813 21.7225 -20 21 C-19.34 21 -18.68 21 -18 21 C-17.7525 20.38125 -17.505 19.7625 -17.25 19.125 C-16 17 -16 17 -13.9375 16 C-12.9784375 15.505 -12.9784375 15.505 -12 15 C-11.855625 14.401875 -11.71125 13.80375 -11.5625 13.1875 C-10.70017158 9.8340006 -8.52389082 8.2944462 -6 6 C-5.0925 5.278125 -4.185 4.55625 -3.25 3.8125 C-0.92512612 2.19690923 -0.92512612 2.19690923 0 0 Z " fill="#3E3E3E" transform="translate(325,10)" />
<path d="M0 0 C4.30673521 3.4785169 8.07001313 7.07689254 11.59765625 11.34375 C12.8446754 12.81655257 14.19791139 14.19791139 15.5625 15.5625 C18.23536645 18.23536645 20.58089731 21.09707677 23 24 C25.59285424 26.71632349 27.87354781 28.91569854 31 31 C31.28875 31.598125 31.5775 32.19625 31.875 32.8125 C33.41084758 35.79887029 35.57590383 37.68865249 38 40 C41.96584274 43.8586578 45.61066239 47.92894854 49.23046875 52.109375 C50.86863988 54.07908003 50.86863988 54.07908003 53 55 C53 55.66 53 56.32 53 57 C53.66 57 54.32 57 55 57 C56.515625 58.50390625 56.515625 58.50390625 58.25 60.5625 C58.87132812 61.29210937 59.49265625 62.02171875 60.1328125 62.7734375 C60.74898437 63.50820312 61.36515625 64.24296875 62 65 C65.52536514 69.17253363 69.07770894 73.18666147 73 77 C73.66 77.66 74.32 78.32 75 79 C74.875 80.6875 74.875 80.6875 74 83 C72.56396648 84.2728479 71.11922042 85.53939003 69.60546875 86.71875 C67.79301827 88.11629683 67.79301827 88.11629683 65.5625 90.4375 C62.52170185 93.47829815 59.2930226 96.2384162 56 99 C54.86800647 98.0919838 53.74467637 97.17316174 52.625 96.25 C51.99851562 95.73953125 51.37203125 95.2290625 50.7265625 94.703125 C48.90975902 92.91098401 48.10007607 91.27601946 47 89 C44.9664052 87.73195434 44.9664052 87.73195434 43 87 C43 86.34 43 85.68 43 85 C42.34 85 41.68 85 41 85 C39.51953125 83.53125 39.51953125 83.53125 37.8125 81.5 C36.88244141 80.40751953 36.88244141 80.40751953 35.93359375 79.29296875 C35.29550781 78.53628906 34.65742188 77.77960938 34 77 C30.8729573 73.36838141 27.7648856 69.7648856 24.375 66.375 C22.54670137 64.54670137 20.93632582 62.74782652 19.3125 60.75 C17.2957678 57.98257806 17.2957678 57.98257806 15 57 C15 102.21 15 147.42 15 194 C5.43 194 -4.14 194 -14 194 C-14.33 193.67 -14.66 193.34 -15 193 C-15.10849442 191.25411375 -15.14687036 189.50384069 -15.15821838 187.75462341 C-15.1680072 186.61733795 -15.17779602 185.48005249 -15.18788147 184.30830383 C-15.19651466 182.4201722 -15.19651466 182.4201722 -15.20532227 180.49389648 C-15.21522186 179.17701843 -15.22512146 177.86014038 -15.23532104 176.50335693 C-15.26243433 172.88165045 -15.28340898 169.25993085 -15.30332303 165.63817859 C-15.32514311 161.85715497 -15.35255119 158.07617208 -15.37937927 154.29518127 C-15.42936013 147.13058664 -15.47427888 139.96596946 -15.51740164 132.80133063 C-15.56672802 124.64665946 -15.62166315 116.49202914 -15.67708123 108.33739746 C-15.79098403 91.5583026 -15.8978049 74.77917034 -16 58 C-16.61633301 58.68634521 -17.23266602 59.37269043 -17.86767578 60.07983398 C-18.6770459 60.98032471 -19.48641602 61.88081543 -20.3203125 62.80859375 C-21.12227051 63.70118896 -21.92422852 64.59378418 -22.75048828 65.51342773 C-29.31751089 72.77250363 -29.31751089 72.77250363 -33 74 C-34.21869929 76.50447516 -34.21869929 76.50447516 -35 79 C-35.99 79 -36.98 79 -38 79 C-38.3403125 80.0828125 -38.3403125 80.0828125 -38.6875 81.1875 C-40.27485382 84.58897247 -42.2869353 86.41025643 -45 89 C-46.03183886 90.198949 -47.05235792 91.40771486 -48.0625 92.625 C-50.17702822 95.13292882 -52.23283819 97.1907019 -55 99 C-58.25207092 97.58261511 -60.31361067 95.87473588 -62.75 93.3125 C-66.14446572 89.79680336 -69.70250224 86.6741713 -73.53125 83.640625 C-74.0159375 83.09921875 -74.500625 82.5578125 -75 82 C-75 80.68 -75 79.36 -75 78 C-72.8125 75.5625 -72.8125 75.5625 -70 73 C-68.32897985 71.33769822 -66.66312435 69.67020147 -65 68 C-63.8990903 66.90949683 -62.79748904 65.81969151 -61.6953125 64.73046875 C-55.57205266 58.6625037 -49.55857823 52.59654369 -44 46 C-42.5695937 44.32724125 -41.13190823 42.66068326 -39.6875 41 C-39.03136719 40.236875 -38.37523437 39.47375 -37.69921875 38.6875 C-37.13847656 38.130625 -36.57773438 37.57375 -36 37 C-35.34 37 -34.68 37 -34 37 C-33.7525 36.38125 -33.505 35.7625 -33.25 35.125 C-32 33 -32 33 -30 32.0625 C-29.34 31.711875 -28.68 31.36125 -28 31 C-27.32558869 29.3364521 -26.6599679 27.66933058 -26 26 C-23.6875 23.5 -23.6875 23.5 -21 21 C-20.154375 20.113125 -19.30875 19.22625 -18.4375 18.3125 C-16 16 -16 16 -13.8125 15 C-13.214375 14.67 -12.61625 14.34 -12 14 C-11.32558869 12.3364521 -10.6599679 10.66933058 -10 9 C-6.94750014 5.61750015 -3.60327872 2.77967215 0 0 Z " fill="#A7D66A" transform="translate(183,162)" />
<path d="M0 0 C3.2417969 0.61649556 4.13144633 1.11650925 6.75 3.4375 C7.4925 4.283125 8.235 5.12875 9 6 C9 6.66 9 7.32 9 8 C9.66 8 10.32 8 11 8 C11 8.66 11 9.32 11 10 C11.66 10 12.32 10 13 10 C14.5859375 11.609375 14.5859375 11.609375 16.375 13.75 C18.33757727 16.06903702 20.2588295 18.25219284 22.4375 20.375 C22.953125 20.91125 23.46875 21.4475 24 22 C24 22.66 24 23.32 24 24 C24.556875 24.226875 25.11375 24.45375 25.6875 24.6875 C28.63853612 26.36241239 30.72504265 28.53004631 33 31 C34.03833984 32.11761719 34.03833984 32.11761719 35.09765625 33.2578125 C39.38997054 37.96648885 39.38997054 37.96648885 41 40 C41 40.66 41 41.32 41 42 C41.58265625 42.2475 42.1653125 42.495 42.765625 42.75 C45.33114236 44.18525446 46.83724798 45.77663013 48.75 48 C49.36359375 48.70125 49.9771875 49.4025 50.609375 50.125 C51.29773438 51.053125 51.29773438 51.053125 52 52 C52 52.66 52 53.32 52 54 C52.556875 54.226875 53.11375 54.45375 53.6875 54.6875 C60.99117009 58.83282627 67.05266208 67.23425427 72.15234375 73.75 C73.80250273 76.07100909 73.80250273 76.07100909 76 77 C75.8125 79.1875 75.8125 79.1875 75 82 C71.70206126 85.76907285 67.83979873 88.80016772 64 92 C63.113125 92.928125 62.22625 93.85625 61.3125 94.8125 C60.1678125 95.8953125 60.1678125 95.8953125 59 97 C56 97 56 97 53.75 95.5 C50.81276938 92.82979035 48.28414244 89.98391027 45.71484375 86.96484375 C44.226972 85.26006131 42.69758419 83.68597272 41.0625 82.125 C40.381875 81.42375 39.70125 80.7225 39 80 C39 79.34 39 78.68 39 78 C38.4121875 77.74863281 37.824375 77.49726563 37.21875 77.23828125 C34.72317825 75.84550617 33.33469485 74.36828502 31.5 72.1875 C30.89414062 71.47335938 30.28828125 70.75921875 29.6640625 70.0234375 C28.38402741 68.46696291 27.12490982 66.8932683 25.875 65.3125 C22.92354016 61.6723662 19.90282177 58.60188118 16 56 C16 101.21 16 146.42 16 193 C6.43 193 -3.14 193 -13 193 C-13 147.79 -13 102.58 -13 56 C-16.74316803 59.74316087 -16.74316803 59.74316087 -20.484375 63.48828125 C-22.19795686 65.19920227 -23.91693723 66.90472949 -25.640625 68.60546875 C-26.50171875 69.45753906 -27.3628125 70.30960937 -28.25 71.1875 C-29.12140625 72.04730469 -29.9928125 72.90710938 -30.890625 73.79296875 C-33.02994238 75.81431066 -33.02994238 75.81431066 -34 78 C-34.66 78 -35.32 78 -36 78 C-36.23976563 78.56847656 -36.47953125 79.13695312 -36.7265625 79.72265625 C-38.25845159 82.46220023 -40.11093429 84.26745695 -42.375 86.4375 C-44.90976137 88.89532772 -47.12699024 91.16932032 -49.25 94 C-51 96 -51 96 -53.4375 97.0625 C-56 97 -56 97 -58.4375 95.5 C-61.00454203 92.99556875 -63.24122854 90.36292669 -65.51171875 87.59375 C-67.04828466 85.78458044 -67.04828466 85.78458044 -69.8125 84.4375 C-70.534375 83.963125 -71.25625 83.48875 -72 83 C-73.125 80.125 -73.125 80.125 -73 77 C-70.6875 74.125 -70.6875 74.125 -68 72 C-67.34 72 -66.68 72 -66 72 C-65.773125 71.278125 -65.54625 70.55625 -65.3125 69.8125 C-63.75224534 66.46909715 -61.64393782 64.47192259 -59 62 C-57.49591097 60.5041002 -55.99626092 59.00372978 -54.5 57.5 C-52.17834943 55.17453092 -49.85280997 52.85648972 -47.5 50.5625 C-41.65366037 44.57000188 -36.15720239 38.23603612 -30.703125 31.88671875 C-27.79190909 28.66167911 -24.66383494 25.65422961 -21.5703125 22.60546875 C-17.08677839 18.17207001 -12.77009233 13.68554246 -8.671875 8.89453125 C-5.92746498 5.78462737 -2.97206494 2.89076226 0 0 Z " fill="#A8D66B" transform="translate(467,163)" />
<path d="M0 0 C4.15300707 3.3947333 7.73067044 6.71605092 11 11 C11.928125 11.928125 11.928125 11.928125 12.875 12.875 C14.67266503 14.67266503 16.29951695 16.49789347 17.9375 18.4375 C20.98146794 22.02312639 24.24263207 25.32194321 27.64453125 28.5703125 C29.13123259 30.01175127 30.56940276 31.50286335 32 33 C32 33.66 32 34.32 32 35 C32.556875 35.20625 33.11375 35.4125 33.6875 35.625 C36.92501302 37.55000774 38.68231141 40.03850902 41 43 C39.59155282 46.21524305 37.89655214 48.32183868 35.375 50.75 C34.42753906 51.67039062 34.42753906 51.67039062 33.4609375 52.609375 C32.97882813 53.06828125 32.49671875 53.5271875 32 54 C28.93515701 53.655933 27.32544489 53.28641668 24.98046875 51.22265625 C24.38878906 50.50980469 23.79710937 49.79695313 23.1875 49.0625 C22.58292969 48.35222656 21.97835937 47.64195312 21.35546875 46.91015625 C20.90816406 46.27980469 20.46085938 45.64945312 20 45 C20 44.34 20 43.68 20 43 C18.68 42.34 17.36 41.68 16 41 C14.02 38.69 12.04 36.38 10 34 C9.67 57.43 9.34 80.86 9 105 C1.08 105.495 1.08 105.495 -7 106 C-7.33 105.67 -7.66 105.34 -8 105 C-8.12406815 102.79205589 -8.17802278 100.58015514 -8.20532227 98.36889648 C-8.21522186 97.67624695 -8.22512146 96.98359741 -8.23532104 96.2699585 C-8.2670203 93.97037221 -8.29172651 91.67076523 -8.31640625 89.37109375 C-8.33696852 87.78067982 -8.35796479 86.19027145 -8.37937927 84.59986877 C-8.43467509 80.40610237 -8.4840511 76.21228605 -8.53222656 72.01843262 C-8.58238691 67.74206072 -8.63810144 63.46576166 -8.69335938 59.18945312 C-8.80103274 50.79303027 -8.90245716 42.39654662 -9 34 C-10.12289414 35.11505597 -11.24466731 36.23124085 -12.3659668 37.34790039 C-12.99077438 37.9693544 -13.61558197 38.59080841 -14.25932312 39.23109436 C-16.84147243 41.85511868 -19.17147198 44.66445247 -21.51953125 47.49609375 C-22.00808594 47.99238281 -22.49664063 48.48867188 -23 49 C-23.66 49 -24.32 49 -25 49 C-25.37125 49.9590625 -25.37125 49.9590625 -25.75 50.9375 C-26.36875 51.9584375 -26.36875 51.9584375 -27 53 C-29.125 53.75 -29.125 53.75 -31 54 C-32.5 52.625 -32.5 52.625 -34 51 C-34 50.34 -34 49.68 -34 49 C-35.65 48.34 -37.3 47.68 -39 47 C-39.875 44.9375 -39.875 44.9375 -40 42 C-37.17389264 37.47822823 -33.15402328 34.25585608 -29 31 C-28.443125 30.2575 -27.88625 29.515 -27.3125 28.75 C-26.879375 28.1725 -26.44625 27.595 -26 27 C-25.34 27 -24.68 27 -24 27 C-23.75636719 26.42765625 -23.51273438 25.8553125 -23.26171875 25.265625 C-21.77482702 22.59566462 -20.01916092 20.86170993 -17.8125 18.75 C-14.23207866 15.25564648 -10.89595745 11.65863381 -7.640625 7.86328125 C-5.21664291 5.11033016 -2.62490074 2.56087877 0 0 Z " fill="#A8D66D" transform="translate(552,251)" />
<path d="M0 0 C3.78083039 1.52951775 5.85198638 3.81890209 8.5 6.875 C10.70323921 9.40268882 12.86457174 11.86967349 15.28125 14.1953125 C15.8484375 14.79085938 16.415625 15.38640625 17 16 C17 16.66 17 17.32 17 18 C17.99 18.33 18.98 18.66 20 19 C21.5078125 20.53125 21.5078125 20.53125 23.125 22.5 C25.83859203 25.70226856 28.64920328 28.72658226 31.625 31.6875 C32.75615234 32.81478516 32.75615234 32.81478516 33.91015625 33.96484375 C35.14558949 35.1679479 36.39752045 36.35509367 37.68359375 37.50390625 C39.84582308 39.45787553 40.92580031 40.69578127 41.625 43.5625 C41 46 41 46 38.6875 48.0625 C37.3571875 49.0215625 37.3571875 49.0215625 36 50 C34.23676495 52.12603185 34.23676495 52.12603185 33 54 C29.93515701 53.655933 28.32544489 53.28641668 25.98046875 51.22265625 C25.38878906 50.50980469 24.79710937 49.79695313 24.1875 49.0625 C23.58292969 48.35222656 22.97835937 47.64195312 22.35546875 46.91015625 C21.90816406 46.27980469 21.46085937 45.64945312 21 45 C21 44.34 21 43.68 21 43 C19.68 42.34 18.36 41.68 17 41 C14.69 38.36 12.38 35.72 10 33 C10 56.76 10 80.52 10 105 C4.39 105 -1.22 105 -7 105 C-7.495 69.855 -7.495 69.855 -8 34 C-16.06425096 42.02525272 -16.06425096 42.02525272 -23.625 50.40625 C-24.69849686 51.65053045 -25.83796959 52.83796959 -27 54 C-29.26171875 53.75390625 -29.26171875 53.75390625 -32 53 C-34.01953125 51.15234375 -34.01953125 51.15234375 -35.8125 48.9375 C-36.41707031 48.20402344 -37.02164063 47.47054687 -37.64453125 46.71484375 C-38.09183594 46.14894531 -38.53914063 45.58304687 -39 45 C-38.6174811 42.26067107 -38.02787542 41.03182344 -36.1796875 38.921875 C-35.03886719 37.84679687 -35.03886719 37.84679687 -33.875 36.75 C-28.67320906 31.7216021 -23.96380424 26.39887038 -19.375 20.8125 C-16.33225814 17.20925306 -13.00106642 13.97472256 -9.625 10.6875 C-6.26791915 7.25048866 -3.13406269 3.63984803 0 0 Z " fill="#AAD670" transform="translate(98,251)" />
<path d="M0 0 C3.30653354 1.41088411 5.1547817 3.05531369 7.4375 5.8125 C10.82410024 9.81418789 14.38331011 13.51803426 18.25 17.0625 C20.0851527 19.0942762 20.61776714 20.32437 21 23 C19.68 24.32 18.36 25.64 17 27 C14.64694923 26.58565845 13.19144323 26.15060786 11.296875 24.66015625 C10.78640625 24.13292969 10.2759375 23.60570312 9.75 23.0625 C9.22921875 22.53785156 8.7084375 22.01320313 8.171875 21.47265625 C7.78515625 20.98667969 7.3984375 20.50070312 7 20 C7 19.34 7 18.68 7 18 C6.34 18 5.68 18 5 18 C5.24363281 19.87558594 5.24363281 19.87558594 5.4921875 21.7890625 C6.10573543 27.32400197 6.14740416 32.81129929 6.125 38.375 C6.13080078 39.85033203 6.13080078 39.85033203 6.13671875 41.35546875 C6.13542969 42.29777344 6.13414063 43.24007812 6.1328125 44.2109375 C6.13168457 45.05962402 6.13055664 45.90831055 6.12939453 46.78271484 C6 49 6 49 5 52 C2.03 52 -0.94 52 -4 52 C-4.33 41.44 -4.66 30.88 -5 20 C-5.99 20.99 -6.98 21.98 -8 23 C-8.66 23 -9.32 23 -10 23 C-10.66 24.32 -11.32 25.64 -12 27 C-14.51807725 26.56584875 -15.817815 26.16266518 -17.75 24.4375 C-18.1625 23.963125 -18.575 23.48875 -19 23 C-17.70738073 17.94703375 -15.83736676 15.48040241 -12 12 C-11.21625 11.21625 -10.4325 10.4325 -9.625 9.625 C-6.41666667 6.41666667 -3.20833333 3.20833333 0 0 Z " fill="#ABD66F" transform="translate(49,304)" />
<path d="M0 0 C1.72265625 0.203125 1.72265625 0.203125 4 1 C6.18359375 3.109375 6.18359375 3.109375 8.4375 5.75 C10.84337297 8.52267 13.21540106 11.21540106 15.8125 13.8125 C18.07735275 16.07735275 20.04497065 18.4657027 22 21 C20.84826645 23.46800047 19.95216435 25.04783565 18 27 C16.3125 26.8125 16.3125 26.8125 14 26 C11.375 23.5625 11.375 23.5625 9 21 C8.34 20.34 7.68 19.68 7 19 C6.67 29.89 6.34 40.78 6 52 C3.36 52.33 0.72 52.66 -2 53 C-2.33 52.67 -2.66 52.34 -3 52 C-3.15980437 49.55391002 -3.25929447 47.13268942 -3.31640625 44.68359375 C-3.33718735 43.95253922 -3.35796844 43.22148468 -3.37937927 42.46827698 C-3.44495024 40.12478344 -3.50379432 37.78117461 -3.5625 35.4375 C-3.60567808 33.85220145 -3.64929213 32.26691471 -3.69335938 30.68164062 C-3.8006392 26.78787963 -3.9018849 22.89400228 -4 19 C-6.64752004 21.57784846 -8.94432065 23.91648098 -11 27 C-13.51807725 26.56584875 -14.817815 26.16266518 -16.75 24.4375 C-17.1625 23.963125 -17.575 23.48875 -18 23 C-17.8125 20.8125 -17.8125 20.8125 -17 18 C-14.75 15.5 -14.75 15.5 -12 13 C-11.175 12.175 -10.35 11.35 -9.5 10.5 C-7.78121843 8.78121843 -6.05138219 7.07344307 -4.3125 5.375 C-1.88724324 3.02914245 -1.88724324 3.02914245 0 0 Z " fill="#ABD671" transform="translate(600,304)" />
<path d="M0 0 C0.33 0 0.66 0 1 0 C0.67 46.2 0.34 92.4 0 140 C-0.66 140.33 -1.32 140.66 -2 141 C-2.33 96.45 -2.66 51.9 -3 6 C-4.485 6.99 -4.485 6.99 -6 8 C-6.33 7.01 -6.66 6.02 -7 5 C-5.6875 3.5 -5.6875 3.5 -4 2 C-3.01 2 -2.02 2 -1 2 C-0.67 1.34 -0.34 0.68 0 0 Z " fill="#AEE591" transform="translate(170,214)" />
<path d="M0 0 C1.32 0 2.64 0 4 0 C4.495 2.475 4.495 2.475 5 5 C5.99 4.67 6.98 4.34 8 4 C9.32 6.97 10.64 9.94 12 13 C9 12 9 12 7.24609375 9.96875 C6.64925781 9.1540625 6.05242187 8.339375 5.4375 7.5 C3.168506 4.2216853 3.168506 4.2216853 0 2 C0 47.21 0 92.42 0 139 C-9.57 139 -19.14 139 -29 139 C-29 138.67 -29 138.34 -29 138 C-20.09 137.67 -11.18 137.34 -2 137 C-2 99.05 -2 61.1 -2 22 C-2.33 22 -2.66 22 -3 22 C-3.09765625 15.84765625 -3.09765625 15.84765625 -3 14 C-2.67 13.67 -2.34 13.34 -2 13 C-1.79111292 11.00396794 -1.63224523 9.00257059 -1.5 7 C-1.36775477 4.99742941 -1.20888708 2.99603206 -1 1 C-0.67 0.67 -0.34 0.34 0 0 Z " fill="#ABCC79" transform="translate(198,217)" />
<path d="M0 0 C0.99 0.66 1.98 1.32 3 2 C2.67 3.65 2.34 5.3 2 7 C2.99 7.33 3.98 7.66 5 8 C5 9.65 5 11.3 5 13 C4.34 13 3.68 13 3 13 C3.01160156 14.21558594 3.02320313 15.43117188 3.03515625 16.68359375 C3.04453278 18.26822764 3.05363313 19.85286318 3.0625 21.4375 C3.07087891 22.23994141 3.07925781 23.04238281 3.08789062 23.86914062 C3.0965143 25.91295221 3.0522815 27.95683902 3 30 C2.67 30.33 2.34 30.66 2 31 C0.33382885 31.04063832 -1.33388095 31.042721 -3 31 C-3.08770383 27.14597871 -3.14062735 23.29221709 -3.1875 19.4375 C-3.21263672 18.35146484 -3.23777344 17.26542969 -3.26367188 16.14648438 C-3.32016075 9.95153745 -2.98984306 5.46960792 0 0 Z " fill="#A9D766" transform="translate(50,323)" />
<path d="M0 0 C2.66666667 2.66666667 5.33333333 5.33333333 8 8 C6.59155282 11.21524305 4.89655214 13.32183868 2.375 15.75 C1.74335937 16.36359375 1.11171875 16.9771875 0.4609375 17.609375 C-0.02117188 18.06828125 -0.50328125 18.5271875 -1 19 C-3.25 18.875 -3.25 18.875 -6 18 C-8.3125 14.9375 -8.3125 14.9375 -10 12 C-9.236875 11.773125 -8.47375 11.54625 -7.6875 11.3125 C-4.86510934 10.19328752 -4.86510934 10.19328752 -3.3125 7.6875 C-2.07800824 5.15973116 -0.97931465 2.63661636 0 0 Z " fill="#ADD779" transform="translate(585,286)" />
<path d="M0 0 C0.33 0 0.66 0 1 0 C1.33 4.95 1.66 9.9 2 15 C3.32 14.01 4.64 13.02 6 12 C7.2879632 15.8638896 7.18415915 19.53677722 7.1875 23.5625 C7.19974609 24.34302734 7.21199219 25.12355469 7.22460938 25.92773438 C7.22985217 27.95320035 7.12234328 29.97822552 7 32 C6.34 32.66 5.68 33.32 5 34 C3.35 34 1.7 34 0 34 C0 22.78 0 11.56 0 0 Z " fill="#A6D36B" transform="translate(598,321)" />
<path d="M0 0 C0.99 0.495 0.99 0.495 2 1 C2 10.9 2 20.8 2 31 C3.65 30.67 5.3 30.34 7 30 C7.33 24.39 7.66 18.78 8 13 C8.66 13 9.32 13 10 13 C10.02696009 15.7708983 10.04681952 18.5415345 10.0625 21.3125 C10.07087891 22.09818359 10.07925781 22.88386719 10.08789062 23.69335938 C10.09111328 24.45068359 10.09433594 25.20800781 10.09765625 25.98828125 C10.10289307 26.68477783 10.10812988 27.38127441 10.11352539 28.09887695 C10 30 10 30 9 33 C6.03 33 3.06 33 0 33 C0 22.11 0 11.22 0 0 Z " fill="#B8DA94" transform="translate(45,323)" />
<path d="M0 0 C0.66 0 1.32 0 2 0 C1.67 1.98 1.34 3.96 1 6 C1.66 6 2.32 6 3 6 C3.33 7.65 3.66 9.3 4 11 C3.01 11.33 2.02 11.66 1 12 C-0.20882096 14.00016466 -0.20882096 14.00016466 -1 16 C-3.51807725 15.56584875 -4.817815 15.16266518 -6.75 13.4375 C-7.1625 12.963125 -7.575 12.48875 -8 12 C-6.71999898 6.99635967 -4.82671924 4.43423522 -1 1 C-0.67 0.67 -0.34 0.34 0 0 Z " fill="#ACD578" transform="translate(38,315)" />
<path d="M0 0 C1.98 0 3.96 0 6 0 C6.33 0.66 6.66 1.32 7 2 C6.34 2.66 5.68 3.32 5 4 C4.34 3.34 3.68 2.68 3 2 C2.67 25.43 2.34 48.86 2 73 C1.67 73 1.34 73 1 73 C0.85457026 65.97898183 0.7125773 58.95789961 0.57275391 51.93676758 C0.52500573 49.55817158 0.47652735 47.17959011 0.42724609 44.80102539 C0.11837554 29.86492776 -0.07227271 14.93937246 0 0 Z " fill="#ABCA86" transform="translate(559,283)" />
<path d="M0 0 C0.33 0.66 0.66 1.32 1 2 C0.34 1.67 -0.32 1.34 -1 1 C-0.67 0.67 -0.34 0.34 0 0 Z M2 -6 C3.65 -5.01 5.3 -4.02 7 -3 C7.3125 -0.75 7.3125 -0.75 7 2 C4.6875 4.0625 4.6875 4.0625 2 6 C0.23676495 8.12603185 0.23676495 8.12603185 -1 10 C-3.1875 9.9375 -3.1875 9.9375 -6 9 C-7.93157957 6.8282781 -9.48201687 4.47398953 -11 2 C-6.22295234 0.8626077 -3.57339494 1.40925393 1 3 C3.2875976 2.72359986 3.2875976 2.72359986 5 2 C5 0.68 5 -0.64 5 -2 C4.01 -2 3.02 -2 2 -2 C2 -3.32 2 -4.64 2 -6 Z " fill="#A8D36C" transform="translate(132,295)" />
<path d="M0 0 C0.99 0.66 1.98 1.32 3 2 C2.01 2.33 1.02 2.66 0 3 C-1.21869929 5.50447516 -1.21869929 5.50447516 -2 8 C-2.99 8 -3.98 8 -5 8 C-5.226875 8.721875 -5.45375 9.44375 -5.6875 10.1875 C-7.27485382 13.58897247 -9.2869353 15.41025643 -12 18 C-13.03183886 19.198949 -14.05235792 20.40771486 -15.0625 21.625 C-17.17702822 24.13292882 -19.23283819 26.1907019 -22 28 C-25.16115776 26.63016497 -25.9927092 26.0109362 -28 23 C-24.7 23 -21.4 23 -18 23 C-18 21.68 -18 20.36 -18 19 C-16.6875 17.25 -16.6875 17.25 -15 16 C-14.01 16 -13.02 16 -12 16 C-12 14.68 -12 13.36 -12 12 C-11.01 12 -10.02 12 -9 12 C-8.67 10.68 -8.34 9.36 -8 8 C-7.34 8.33 -6.68 8.66 -6 9 C-6 8.34 -6 7.68 -6 7 C-5.01 7 -4.02 7 -3 7 C-2.87625 6.401875 -2.7525 5.80375 -2.625 5.1875 C-2 3 -2 3 0 0 Z " fill="#BCDB96" transform="translate(150,233)" />
<path d="M0 0 C3.76302258 2.83735927 6.55837918 4.96315113 8.4375 9.375 C8.623125 10.24125 8.80875 11.1075 9 12 C7.68 13.32 6.36 14.64 5 16 C2.43586908 15.60423197 1.19667629 15.18810554 -0.703125 13.37109375 C-1.21359375 12.73300781 -1.7240625 12.09492188 -2.25 11.4375 C-2.77078125 10.79683594 -3.2915625 10.15617187 -3.828125 9.49609375 C-4.21484375 9.00238281 -4.6015625 8.50867188 -5 8 C-2.525 8.495 -2.525 8.495 0 9 C0.33 10.32 0.66 11.64 1 13 C2.32 12.34 3.64 11.68 5 11 C4.34 9.68 3.68 8.36 3 7 C2.01 7.495 2.01 7.495 1 8 C1 7.34 1 6.68 1 6 C0.34 6 -0.32 6 -1 6 C-0.67 4.02 -0.34 2.04 0 0 Z " fill="#B5D28D" transform="translate(61,315)" />
<path d="M0 0 C1.32 1.32 2.64 2.64 4 4 C3.01 4.495 3.01 4.495 2 5 C1.01 4.67 0.02 4.34 -1 4 C-1.24492188 4.56203125 -1.48984375 5.1240625 -1.7421875 5.703125 C-3.22926539 8.41865854 -5.04062782 10.46391438 -7.125 12.75 C-7.84945312 13.54921875 -8.57390625 14.3484375 -9.3203125 15.171875 C-9.87460937 15.77515625 -10.42890625 16.3784375 -11 17 C-11.99 16.34 -12.98 15.68 -14 15 C-4.58997722 4.44191344 -4.58997722 4.44191344 0 0 Z " fill="#BCDB8F" transform="translate(552,251)" />
<path d="M0 0 C0.99 0.33 1.98 0.66 3 1 C1.78575607 2.49144105 0.55293955 3.96777403 -0.6875 5.4375 C-1.37199219 6.26121094 -2.05648438 7.08492188 -2.76171875 7.93359375 C-5 10 -5 10 -7.76953125 10.78515625 C-8.50558594 10.85605469 -9.24164063 10.92695313 -10 11 C-11.32 9.68 -12.64 8.36 -14 7 C-13.05125 6.71125 -12.1025 6.4225 -11.125 6.125 C-7.94788422 5.23174891 -7.94788422 5.23174891 -6 3 C-4.01178687 2.60235737 -2.01055661 2.26224651 0 2 C0 1.34 0 0.68 0 0 Z " fill="#A8D46F" transform="translate(421,249)" />
<path d="M0 0 C1.32 0 2.64 0 4 0 C4.33 1.65 4.66 3.3 5 5 C5.99 4.67 6.98 4.34 8 4 C9.32 6.97 10.64 9.94 12 13 C9 12 9 12 7.24609375 9.96875 C6.35083984 8.74671875 6.35083984 8.74671875 5.4375 7.5 C3.168506 4.2216853 3.168506 4.2216853 0 2 C0 7.94 0 13.88 0 20 C-0.66 19.67 -1.32 19.34 -2 19 C-1.85982174 16.02046641 -1.71313658 13.04150696 -1.5625 10.0625 C-1.52318359 9.21236328 -1.48386719 8.36222656 -1.44335938 7.48632812 C-1.40146484 6.67744141 -1.35957031 5.86855469 -1.31640625 5.03515625 C-1.27974854 4.2862915 -1.24309082 3.53742676 -1.20532227 2.76586914 C-1.10368774 1.89176392 -1.10368774 1.89176392 -1 1 C-0.67 0.67 -0.34 0.34 0 0 Z " fill="#C1DE9D" transform="translate(198,217)" />
<path d="M0 0 C0.99 0 1.98 0 3 0 C2.67 1.98 2.34 3.96 2 6 C3.32 6 4.64 6 6 6 C6.66 6.33 7.32 6.66 8 7 C8.625 9.5625 8.625 9.5625 9 12 C7.35 12.33 5.7 12.66 4 13 C3.67 11.68 3.34 10.36 3 9 C1.68 8.67 0.36 8.34 -1 8 C-1.08226668 4.95613276 -0.97608217 2.92824652 0 0 Z " fill="#A9D36B" transform="translate(58,315)" />
<path d="M0 0 C0.99 0 1.98 0 3 0 C1.60090738 4.45165834 -0.60135365 6.85625212 -4 10 C-4.66 10.66 -5.32 11.32 -6 12 C-8.375 11.75 -8.375 11.75 -11 11 C-12.3125 8.9375 -12.3125 8.9375 -13 7 C-12.01 7 -11.02 7 -10 7 C-10 7.99 -10 8.98 -10 10 C-8.68 10 -7.36 10 -6 10 C-6.33 8.02 -6.66 6.04 -7 4 C-6.34 4 -5.68 4 -5 4 C-4.67 3.34 -4.34 2.68 -4 2 C-4 2.66 -4 3.32 -4 4 C-2.68 3.34 -1.36 2.68 0 2 C0 1.34 0 0.68 0 0 Z " fill="#B8D68F" transform="translate(77,293)" />
<path d="M0 0 C0 2.9943568 -0.41424952 5.26482067 -1.6015625 8.015625 C-4.67521241 12.37711705 -9.58918545 15.11686995 -14 18 C-14.66 17.67 -15.32 17.34 -16 17 C-14.05452565 14.4060342 -12.24732286 12.19384765 -9.6875 10.1875 C-5.99616523 7.18292518 -3.05886963 3.63185673 0 0 Z " fill="#BEDB94" transform="translate(430,202)" />
<path d="M0 0 C3.47775306 1.87986652 6.07765153 3.47569447 8 7 C7.79296875 8.95703125 7.79296875 8.95703125 7 11 C5.37109375 12.484375 5.37109375 12.484375 3.4375 13.75 C2.79683594 14.17796875 2.15617188 14.6059375 1.49609375 15.046875 C0.75552734 15.51867187 0.75552734 15.51867187 0 16 C0 15.01 0 14.02 0 13 C0.66 13 1.32 13 2 13 C2 12.01 2 11.02 2 10 C2.99 10 3.98 10 5 10 C5 9.01 5 8.02 5 7 C4.360625 6.773125 3.72125 6.54625 3.0625 6.3125 C2.381875 5.879375 1.70125 5.44625 1 5 C0.25 2.375 0.25 2.375 0 0 Z " fill="#BBD792" transform="translate(250,234)" />
<path d="M0 0 C1.32 0.99 2.64 1.98 4 3 C2.61918777 7.1424367 0.40174442 8.32203099 -3 11 C-3.66 10.34 -4.32 9.68 -5 9 C-4.5504955 7.68445015 -4.09010284 6.37261642 -3.625 5.0625 C-3.36976563 4.33160156 -3.11453125 3.60070312 -2.8515625 2.84765625 C-2.57054687 2.23792969 -2.28953125 1.62820312 -2 1 C-1.34 0.67 -0.68 0.34 0 0 Z " fill="#454545" transform="translate(456,149)" />
<path d="M0 0 C0.33 0.99 0.66 1.98 1 3 C0.04882866 4.1725131 -0.91117009 5.33787015 -1.875 6.5 C-2.67550781 7.47453125 -2.67550781 7.47453125 -3.4921875 8.46875 C-3.98976563 8.9740625 -4.48734375 9.479375 -5 10 C-5.66 10 -6.32 10 -7 10 C-7.226875 10.763125 -7.45375 11.52625 -7.6875 12.3125 C-9 15 -9 15 -11.625 16.8125 C-12.40875 17.204375 -13.1925 17.59625 -14 18 C-14.66 17.67 -15.32 17.34 -16 17 C-15.43152344 16.443125 -14.86304688 15.88625 -14.27734375 15.3125 C-9.29146714 10.38488906 -4.53204946 5.34810981 0 0 Z " fill="#C4DD9D" transform="translate(460,170)" />
<path d="M0 0 C1.1875 1.5 1.1875 1.5 2 4 C1.27101296 6.78824238 0.1843275 9.37665092 -1 12 C-1.99 11.67 -2.98 11.34 -4 11 C-4.8125 8.3125 -4.8125 8.3125 -5 5 C-2.5625 2.125 -2.5625 2.125 0 0 Z " fill="#B7D68B" transform="translate(399,235)" />
<path d="M0 0 C0.33 0.66 0.66 1.32 1 2 C1.66 2.33 2.32 2.66 3 3 C-0.16952847 6.26008643 -3.39937989 9.22237877 -7 12 C-7.99 11.67 -8.98 11.34 -10 11 C-6.7 7.37 -3.4 3.74 0 0 Z " fill="#BCDA8D" transform="translate(138,209)" />
<path d="M0 0 C0.66 0.99 1.32 1.98 2 3 C1.34 3.66 0.68 4.32 0 5 C-0.66 4.67 -1.32 4.34 -2 4 C-2.66 5.65 -3.32 7.3 -4 9 C-4.66 9 -5.32 9 -6 9 C-6.66 10.65 -7.32 12.3 -8 14 C-9.65 14.33 -11.3 14.66 -13 15 C-11.625 13 -11.625 13 -10 11 C-9.34 11 -8.68 11 -8 11 C-7.773125 10.278125 -7.54625 9.55625 -7.3125 8.8125 C-5.74730392 5.45850839 -3.70307284 3.49514416 -1 1 C-0.67 0.67 -0.34 0.34 0 0 Z " fill="#C6DF9F" transform="translate(163,182)" />
<path d="M0 0 C4.97853147 3.62075016 10.2095767 8.41915339 13 14 C10.8125 13.8125 10.8125 13.8125 8 13 C5.1875 10.625 5.1875 10.625 3 8 C3 7.01 3 6.02 3 5 C2.01 4.67 1.02 4.34 0 4 C0 2.68 0 1.36 0 0 Z " fill="#B7D68F" transform="translate(116,269)" />
<path d="M0 0 C3.40951722 1.13650574 4.37636276 2.25813125 6.6875 4.9375 C7.31011719 5.64777344 7.93273437 6.35804688 8.57421875 7.08984375 C9.04472656 7.72019531 9.51523438 8.35054687 10 9 C10 9.66 10 10.32 10 11 C9.401875 10.835 8.80375 10.67 8.1875 10.5 C5.88655664 9.8885876 5.88655664 9.8885876 3 10 C2.40267181 7.23735711 2 4.83967231 2 2 C1.34 2 0.68 2 0 2 C0 1.34 0 0.68 0 0 Z " fill="#ADD47A" transform="translate(222,204)" />
<path d="M0 0 C0.33 0 0.66 0 1 0 C1 10.23 1 20.46 1 31 C-1.31 31 -3.62 31 -6 31 C-5.0409375 30.5359375 -5.0409375 30.5359375 -4.0625 30.0625 C-2.06389179 29.1654837 -2.06389179 29.1654837 -1 28 C-0.8415735 25.9291528 -0.74875578 23.85321971 -0.68359375 21.77734375 C-0.64169922 20.51728516 -0.59980469 19.25722656 -0.55664062 17.95898438 C-0.51682404 16.61849264 -0.47711186 15.2779978 -0.4375 13.9375 C-0.39431958 12.59308477 -0.35070544 11.2486834 -0.30664062 9.90429688 C-0.20014642 6.6029766 -0.0981354 3.30157764 0 0 Z " fill="#A9CA79" transform="translate(605,325)" />
<path d="M0 0 C-1.56022637 3.82964655 -3.87555571 6.32190489 -7 9 C-8.32 9 -9.64 9 -11 9 C-11.99 7.68 -12.98 6.36 -14 5 C-10.7 5 -7.4 5 -4 5 C-4 3.68 -4 2.36 -4 1 C-2 0 -2 0 0 0 Z " fill="#C7DE9D" transform="translate(136,251)" />
<path d="M0 0 C2.31 1.98 4.62 3.96 7 6 C6.34 7.32 5.68 8.64 5 10 C5 8.68 5 7.36 5 6 C1.7 6 -1.6 6 -5 6 C-4 3 -4 3 -1.9375 1.3125 C-0.9784375 0.6628125 -0.9784375 0.6628125 0 0 Z " fill="#C1DB93" transform="translate(183,162)" />
<path d="M0 0 C0.33 0.66 0.66 1.32 1 2 C1.66 2 2.32 2 3 2 C3 2.66 3 3.32 3 4 C3.66 4 4.32 4 5 4 C6.7265625 5.75 6.7265625 5.75 8.625 8 C9.25664062 8.7425 9.88828125 9.485 10.5390625 10.25 C11.02117187 10.8275 11.50328125 11.405 12 12 C11.34 12.66 10.68 13.32 10 14 C9.34 13.34 8.68 12.68 8 12 C7.01 11.67 6.02 11.34 5 11 C5.66 10.67 6.32 10.34 7 10 C6.34 9.54625 5.68 9.0925 5 8.625 C4.34 8.08875 3.68 7.5525 3 7 C3 6.34 3 5.68 3 5 C2.01 4.67 1.02 4.34 0 4 C0 2.68 0 1.36 0 0 Z " fill="#BDDB92" transform="translate(475,169)" />
<path d="M0 0 C1.9375 0.375 1.9375 0.375 4 1 C4.33 1.66 4.66 2.32 5 3 C3.68 2.67 2.36 2.34 1 2 C-1.1592162 5.52567865 -1.1592162 5.52567865 -2.9375 9.25 C-3.288125 9.8275 -3.63875 10.405 -4 11 C-6.125 11.75 -6.125 11.75 -8 12 C-6.07776117 6.8403063 -4.19813062 3.74427866 0 0 Z " fill="#B3D585" transform="translate(467,163)" />
<path d="M0 0 C1.9375 0.375 1.9375 0.375 4 1 C4.33 1.66 4.66 2.32 5 3 C3.04109119 4.39300182 1.0360882 5.72245446 -1 7 C-1.99 7 -2.98 7 -4 7 C-4 7.66 -4 8.32 -4 9 C-4.99 9.33 -5.98 9.66 -7 10 C-6.8125 8.25 -6.8125 8.25 -6 6 C-4.37373596 4.61767557 -2.7074998 3.28062485 -1 2 C-0.67 1.34 -0.34 0.68 0 0 Z " fill="#BED99D" transform="translate(600,304)" />
<path d="M0 0 C0.33 0.66 0.66 1.32 1 2 C-3.14285714 9.57142857 -3.14285714 9.57142857 -6 12 C-7.32 11.67 -8.64 11.34 -10 11 C-8.89718873 9.72799029 -7.79269231 8.45744147 -6.6875 7.1875 C-6.07261719 6.47980469 -5.45773438 5.77210938 -4.82421875 5.04296875 C-3.26665665 3.29863261 -1.67341125 1.63221959 0 0 Z " fill="#C1DC90" transform="translate(122,226)" />
<path d="M0 0 C0.66 0 1.32 0 2 0 C1.63156045 2.72645268 1.34413097 4.56201514 -0.375 6.75 C-2 8 -2 8 -5 9 C-6.20882096 11.00016466 -6.20882096 11.00016466 -7 13 C-7.33 12.01 -7.66 11.02 -8 10 C-6.70959607 6.12878822 -3.90522623 3.75624026 -1 1 C-0.67 0.67 -0.34 0.34 0 0 Z " fill="#BEDB9B" transform="translate(38,315)" />
<path d="M0 0 C1.32 0 2.64 0 4 0 C4 1.32 4 2.64 4 4 C5.32 4 6.64 4 8 4 C8.33 2.68 8.66 1.36 9 0 C9.66 0 10.32 0 11 0 C11.33 1.32 11.66 2.64 12 4 C11.01 4.99 10.02 5.98 9 7 C6.75 6.875 6.75 6.875 4 6 C1.6875 2.9375 1.6875 2.9375 0 0 Z " fill="#C0DA9C" transform="translate(575,298)" />
<path d="M0 0 C0.99 0.33 1.98 0.66 3 1 C2.67 1.66 2.34 2.32 2 3 C1.01 3 0.02 3 -1 3 C-0.67 3.99 -0.34 4.98 0 6 C-2.05233685 8.2477975 -3.00667261 9.0022242 -6 10 C-6.33 10.66 -6.66 11.32 -7 12 C-7.66 11.67 -8.32 11.34 -9 11 C-6.03 7.37 -3.06 3.74 0 0 Z " fill="#C0D89D" transform="translate(98,251)" />
<path d="M0 0 C1.65 1.65 3.3 3.3 5 5 C3.25 6.5625 3.25 6.5625 1 8 C-1.25 7.6875 -1.25 7.6875 -3 7 C-3 5.02 -3 3.04 -3 1 C-2.01 1.33 -1.02 1.66 0 2 C0 1.34 0 0.68 0 0 Z " fill="#565656" transform="translate(428,119)" />
<path d="M0 0 C0.66 0.33 1.32 0.66 2 1 C1.67 2.32 1.34 3.64 1 5 C3.97 5.495 3.97 5.495 7 6 C6.34 7.32 5.68 8.64 5 10 C2.48192275 9.56584875 1.182185 9.16266518 -0.75 7.4375 C-1.1625 6.963125 -1.575 6.48875 -2 6 C-1.125 1.125 -1.125 1.125 0 0 Z " fill="#B6D18A" transform="translate(584,321)" />
<path d="M0 0 C0.33 1.32 0.66 2.64 1 4 C0.01 4.66 -0.98 5.32 -2 6 C-2.33 6.99 -2.66 7.98 -3 9 C-5.31 9.66 -7.62 10.32 -10 11 C-6.79239749 7.19364503 -3.59253891 3.45436433 0 0 Z " fill="#C1DC9A" transform="translate(80,271)" />
<path d="M0 0 C0.33 0 0.66 0 1 0 C1 1.98 1 3.96 1 6 C0.67 6 0.34 6 0 6 C-0.33 7.65 -0.66 9.3 -1 11 C-1.33 11 -1.66 11 -2 11 C-2.33 9.35 -2.66 7.7 -3 6 C-4.485 6.99 -4.485 6.99 -6 8 C-6.33 7.01 -6.66 6.02 -7 5 C-5.6875 3.5 -5.6875 3.5 -4 2 C-3.01 2 -2.02 2 -1 2 C-0.67 1.34 -0.34 0.68 0 0 Z " fill="#B3D388" transform="translate(170,214)" />
<path d="M0 0 C1.32 1.32 2.64 2.64 4 4 C2.84826645 6.46800047 1.95216435 8.04783565 0 10 C-1.9375 9.625 -1.9375 9.625 -4 9 C-4.33 8.34 -4.66 7.68 -5 7 C-3.02 6.67 -1.04 6.34 1 6 C0.67 4.02 0.34 2.04 0 0 Z " fill="#B8DA95" transform="translate(618,321)" />
<path d="M0 0 C4.82675589 2.41337795 7.69984002 5.86062408 11 10 C10.67 10.99 10.34 11.98 10 13 C9.67 11.68 9.34 10.36 9 9 C7.35 8.67 5.7 8.34 4 8 C3.67 7.01 3.34 6.02 3 5 C2.484375 4.484375 1.96875 3.96875 1.4375 3.4375 C0.963125 2.963125 0.48875 2.48875 0 2 C0 1.34 0 0.68 0 0 Z " fill="#BDDB95" transform="translate(556,256)" />
<path d="M0 0 C0.33 0.66 0.66 1.32 1 2 C0.39421747 4.01927511 -0.26919734 6.02253397 -1 8 C-1.61875 8.103125 -2.2375 8.20625 -2.875 8.3125 C-3.57625 8.539375 -4.2775 8.76625 -5 9 C-5.99 10.485 -5.99 10.485 -7 12 C-7.99 11.67 -8.98 11.34 -10 11 C-6.83451967 7.11098131 -3.59634744 3.49359465 0 0 Z " fill="#C0DC93" transform="translate(443,188)" />
<path d="M0 0 C1.65 0 3.3 0 5 0 C4.67 0.66 4.34 1.32 4 2 C3.34 2 2.68 2 2 2 C1.7525 2.639375 1.505 3.27875 1.25 3.9375 C0.8375 4.618125 0.425 5.29875 0 6 C-2.125 6.75 -2.125 6.75 -4 7 C-4.66 6.01 -5.32 5.02 -6 4 C-4.02 3.67 -2.04 3.34 0 3 C0 2.01 0 1.02 0 0 Z " fill="#B9D491" transform="translate(525,298)" />
<path d="M0 0 C0.33 0.99 0.66 1.98 1 3 C-0.33333333 4.33333333 -1.66666667 5.66666667 -3 7 C-4.051875 8.11375 -4.051875 8.11375 -5.125 9.25 C-5.74375 9.8275 -6.3625 10.405 -7 11 C-7.66 11 -8.32 11 -9 11 C-8.1875 9.0625 -8.1875 9.0625 -7 7 C-6.01 6.67 -5.02 6.34 -4 6 C-3.29788106 4.34795544 -2.63028587 2.68076231 -2 1 C-1.34 0.67 -0.68 0.34 0 0 Z " fill="#C1DB98" transform="translate(175,170)" />
<path d="M0 0 C3.7952131 1.49097658 5.61042731 3.75700849 8 7 C5.03 6.67 2.06 6.34 -1 6 C-0.67 4.02 -0.34 2.04 0 0 Z " fill="#B8D784" transform="translate(241,225)" />
<path d="M0 0 C1.65 0.99 3.3 1.98 5 3 C5.1875 5.3125 5.1875 5.3125 5 8 C3.625 9.8125 3.625 9.8125 2 11 C1.34 11 0.68 11 0 11 C0 10.01 0 9.02 0 8 C0.99 8 1.98 8 3 8 C3 6.68 3 5.36 3 4 C2.01 4 1.02 4 0 4 C0 2.68 0 1.36 0 0 Z " fill="#B5D48D" transform="translate(134,289)" />
<path d="M0 0 C1.65 0.99 3.3 1.98 5 3 C5 3.66 5 4.32 5 5 C5.99 5 6.98 5 8 5 C8 6.65 8 8.3 8 10 C4.51250686 7.21000549 1.49842779 4.74764169 -1 1 C-0.67 0.67 -0.34 0.34 0 0 Z " fill="#BAD992" transform="translate(399,246)" />
<path d="M0 0 C1.65 1.32 3.3 2.64 5 4 C4.75 6.375 4.75 6.375 4 9 C1.9375 10.3125 1.9375 10.3125 0 11 C0 10.01 0 9.02 0 8 C0.99 8 1.98 8 3 8 C3 7.01 3 6.02 3 5 C2.01 5 1.02 5 0 5 C0 3.35 0 1.7 0 0 Z " fill="#B5D48A" transform="translate(538,236)" />
<path d="M0 0 C1.6415049 3.2830098 0.51888624 6.42545033 0 10 C-0.99 9.67 -1.98 9.34 -3 9 C-3.33 7.35 -3.66 5.7 -4 4 C-2.68 2.68 -1.36 1.36 0 0 Z " fill="#B7DA8C" transform="translate(516,289)" />
<path d="M0 0 C2.93200474 2.85276137 5.64315404 5.65079784 8 9 C5.125 8.75 5.125 8.75 2 8 C0.625 6.1875 0.625 6.1875 0 4 C0 2.68 0 1.36 0 0 Z " fill="#BDD991" transform="translate(527,224)" />
<path d="M0 0 C0.66 0.33 1.32 0.66 2 1 C2.625 3.5625 2.625 3.5625 3 6 C1.35 6.33 -0.3 6.66 -2 7 C-2.125 4.625 -2.125 4.625 -2 2 C-1.34 1.34 -0.68 0.68 0 0 Z " fill="#A5D768" transform="translate(64,321)" />
<path d="M0 0 C2.31 1.98 4.62 3.96 7 6 C5.68 6.33 4.36 6.66 3 7 C2.01 7.495 2.01 7.495 1 8 C1 7.34 1 6.68 1 6 C0.34 6 -0.32 6 -1 6 C-0.67 4.02 -0.34 2.04 0 0 Z " fill="#B9DD8F" transform="translate(61,315)" />
<path d="M0 0 C2.25 0.25 2.25 0.25 5 1 C7.3125 3.0625 7.3125 3.0625 9 5 C8.67 6.32 8.34 7.64 8 9 C7.4225 8.2575 6.845 7.515 6.25 6.75 C4.27746474 4.33912357 2.23955718 2.15957299 0 0 Z " fill="#BEDA9B" transform="translate(487,222)" />
<path d="M0 0 C1.32 0.66 2.64 1.32 4 2 C4 2.99 4 3.98 4 5 C3.443125 4.79375 2.88625 4.5875 2.3125 4.375 C-0.659538 3.89304789 -2.31979941 4.73434972 -5 6 C-3.35 4.02 -1.7 2.04 0 0 Z " fill="#BDD58A" transform="translate(49,304)" />
<path d="M0 0 C1.65 0 3.3 0 5 0 C4.04578192 1.14926266 3.08647955 2.29430541 2.125 3.4375 C1.59132813 4.07558594 1.05765625 4.71367187 0.5078125 5.37109375 C-1 7 -1 7 -3 8 C-2.625 5.5625 -2.625 5.5625 -2 3 C-1.34 2.67 -0.68 2.34 0 2 C0 1.34 0 0.68 0 0 Z " fill="#C5DE9B" transform="translate(85,284)" />
<path d="M0 0 C1.32 0 2.64 0 4 0 C4.66 0.99 5.32 1.98 6 3 C6.99 3 7.98 3 9 3 C8.01 3.495 8.01 3.495 7 4 C6.34786708 6.02463255 6.34786708 6.02463255 6 8 C5.67 7.01 5.34 6.02 5 5 C4.34 5 3.68 5 3 5 C2.01 3.35 1.02 1.7 0 0 Z " fill="#BCD990" transform="translate(221,242)" />
<path d="M0 0 C0.33 0.99 0.66 1.98 1 3 C-0.9375 6.1875 -0.9375 6.1875 -3 9 C-4.32 8.34 -5.64 7.68 -7 7 C-6.34 7 -5.68 7 -5 7 C-4.5978125 6.1028125 -4.5978125 6.1028125 -4.1875 5.1875 C-3.01506533 3.02775192 -1.80630718 1.64209744 0 0 Z " fill="#565656" transform="translate(263,76)" />
<path d="M0 0 C1.32 0.33 2.64 0.66 4 1 C3.67 1.99 3.34 2.98 3 4 C2.34 4 1.68 4 1 4 C0.01 5.485 0.01 5.485 -1 7 C-1.66 7 -2.32 7 -3 7 C-2.38722388 4.03824877 -1.74627478 2.61941217 0 0 Z " fill="#B4D587" transform="translate(594,320)" />
<path d="M0 0 C1.35055201 2.70110402 1 5.00789006 1 8 C1.33 8.66 1.66 9.32 2 10 C1.01 9.67 0.02 9.34 -1 9 C-1.66 8.01 -2.32 7.02 -3 6 C-2.75 3.9375 -2.75 3.9375 -2 2 C-1.34 1.34 -0.68 0.68 0 0 Z " fill="#C5DC97" transform="translate(62,290)" />
<path d="M0 0 C0.99 0.33 1.98 0.66 3 1 C3 1.66 3 2.32 3 3 C-1.31818182 7.65909091 -1.31818182 7.65909091 -4 9 C-3.46930939 5.17902761 -2.50298434 2.93828597 0 0 Z " fill="#BEDA92" transform="translate(451,216)" />
<path d="M0 0 C1.5 1.375 1.5 1.375 3 3 C3 3.66 3 4.32 3 5 C4.32 5.66 5.64 6.32 7 7 C7 7.99 7 8.98 7 10 C6.01 10 5.02 10 4 10 C3.34 8.02 2.68 6.04 2 4 C1.34 4 0.68 4 0 4 C0 2.68 0 1.36 0 0 Z " fill="#C1DE9D" transform="translate(488,182)" />
<path d="M0 0 C0.99 0.33 1.98 0.66 3 1 C1.02 3.31 -0.96 5.62 -3 8 C-3.66 7.01 -4.32 6.02 -5 5 C-4.34 4.01 -3.68 3.02 -3 2 C-2.01 2 -1.02 2 0 2 C0 1.34 0 0.68 0 0 Z " fill="#535353" transform="translate(253,153)" />
<path d="M0 0 C3.19199167 2.41556126 5.74716687 4.68003538 8 8 C6.68 8 5.36 8 4 8 C4 7.01 4 6.02 4 5 C2.68 5 1.36 5 0 5 C0 3.35 0 1.7 0 0 Z " fill="#B6DA8D" transform="translate(610,313)" />
<path d="M0 0 C0.66 0.66 1.32 1.32 2 2 C1.34 2 0.68 2 0 2 C-0.33 3.65 -0.66 5.3 -1 7 C-1.99 6.67 -2.98 6.34 -4 6 C-4 4.68 -4 3.36 -4 2 C-2.68 1.34 -1.36 0.68 0 0 Z " fill="#A5D666" transform="translate(584,296)" />
<path d="M0 0 C-1.65 1.32 -3.3 2.64 -5 4 C-6.32 2.68 -7.64 1.36 -9 0 C-5.62182575 -0.84454356 -3.32534757 -1.10844919 0 0 Z " fill="#BED897" transform="translate(244,257)" />
<path d="M0 0 C0.99 0.33 1.98 0.66 3 1 C0.69 3.64 -1.62 6.28 -4 9 C-4.33 7.68 -4.66 6.36 -5 5 C-4.01 4.67 -3.02 4.34 -2 4 C-2 3.34 -2 2.68 -2 2 C-1.34 2 -0.68 2 0 2 C0 1.34 0 0.68 0 0 Z " fill="#C3DD9D" transform="translate(421,249)" />
<path d="M0 0 C0.97608217 2.92824652 1.08226668 4.95613276 1 8 C-0.32 7.34 -1.64 6.68 -3 6 C-3 4.68 -3 3.36 -3 2 C-2.01 1.34 -1.02 0.68 0 0 Z " fill="#C6DEA9" transform="translate(111,238)" />
<path d="M0 0 C3.68802044 1.22934015 4.72356973 2.93859378 7 6 C5.68 6.33 4.36 6.66 3 7 C3 6.34 3 5.68 3 5 C2.01 4.67 1.02 4.34 0 4 C0 2.68 0 1.36 0 0 Z " fill="#535353" transform="translate(411,102)" />
<path d="M0 0 C0.66 0 1.32 0 2 0 C1.3125 1.8125 1.3125 1.8125 0 4 C-2.625 5.75 -2.625 5.75 -5 7 C-5.66 6.67 -6.32 6.34 -7 6 C-5.8803014 4.99406757 -4.7540588 3.9954151 -3.625 3 C-2.68527344 2.1646875 -2.68527344 2.1646875 -1.7265625 1.3125 C-0.87191406 0.6628125 -0.87191406 0.6628125 0 0 Z " fill="#B0D07C" transform="translate(72,281)" />
<path d="M0 0 C1.32 1.32 2.64 2.64 4 4 C3.01 4.495 3.01 4.495 2 5 C1.01 4.67 0.02 4.34 -1 4 C-1.33 4.66 -1.66 5.32 -2 6 C-2.66 5.34 -3.32 4.68 -4 4 C-2.68 2.68 -1.36 1.36 0 0 Z " fill="#B5D48D" transform="translate(552,251)" />
<path d="M0 0 C4.67692308 2.46153846 4.67692308 2.46153846 6.3125 5.1875 C6.6528125 6.0846875 6.6528125 6.0846875 7 7 C5.35 6.67 3.7 6.34 2 6 C2 5.01 2 4.02 2 3 C1.34 3 0.68 3 0 3 C0 2.01 0 1.02 0 0 Z " fill="#BFD98B" transform="translate(204,185)" />
<path d="M0 0 C0.99 0.99 1.98 1.98 3 3 C1.625 5 1.625 5 0 7 C-0.66 7 -1.32 7 -2 7 C-1.125 2.25 -1.125 2.25 0 0 Z " fill="#B6D47F" transform="translate(588,294)" />
<path d="M0 0 C0.99 0.33 1.98 0.66 3 1 C1.38405168 3.04119788 -0.2856382 5.04072937 -2 7 C-2.66 7 -3.32 7 -4 7 C-3.67 5.68 -3.34 4.36 -3 3 C-2.34 3 -1.68 3 -1 3 C-0.67 2.01 -0.34 1.02 0 0 Z " fill="#C1DA9E" transform="translate(160,223)" />
<path d="M0 0 C0.99 0.33 1.98 0.66 3 1 C0.88929795 4.16605307 -0.73539027 5.19587357 -4 7 C-4.66 6.67 -5.32 6.34 -6 6 C-4.02 4.02 -2.04 2.04 0 0 Z " fill="#BEDB98" transform="translate(450,181)" />
<path d="M0 0 C0.99 0.33 1.98 0.66 3 1 C2.0479279 2.00596297 1.08812654 3.00461563 0.125 4 C-0.40867188 4.556875 -0.94234375 5.11375 -1.4921875 5.6875 C-1.98976562 6.120625 -2.48734375 6.55375 -3 7 C-3.66 7 -4.32 7 -5 7 C-3.70700306 4.11562221 -2.34058637 2.12780579 0 0 Z " fill="#515151" transform="translate(219,123)" />
<path d="M0 0 C4.875 0.875 4.875 0.875 6 2 C6.04063832 3.66617115 6.042721 5.33388095 6 7 C1.125 2.25 1.125 2.25 0 0 Z " fill="#BDDA8F" transform="translate(121,297)" />
<path d="M0 0 C2.34260643 0.2602896 4.67724823 0.59952556 7 1 C7.66 1.66 8.32 2.32 9 3 C7.35 3.33 5.7 3.66 4 4 C2.68 2.68 1.36 1.36 0 0 Z " fill="#C3D99F" transform="translate(407,256)" />
<path d="M0 0 C0.99 0.33 1.98 0.66 3 1 C1.02 3.31 -0.96 5.62 -3 8 C-3.33 7.01 -3.66 6.02 -4 5 C-3.34 5 -2.68 5 -2 5 C-2 4.01 -2 3.02 -2 2 C-1.34 2 -0.68 2 0 2 C0 1.34 0 0.68 0 0 Z " fill="#BEDC8A" transform="translate(443,225)" />
<path d="M0 0 C1.32 0 2.64 0 4 0 C4 0.66 4 1.32 4 2 C5.32 2.66 6.64 3.32 8 4 C7.01 4.66 6.02 5.32 5 6 C3.5 4.625 3.5 4.625 2 3 C2 2.34 2 1.68 2 1 C1.34 0.67 0.68 0.34 0 0 Z " fill="#575757" transform="translate(363,119)" />
<path d="M0 0 C0.33 0 0.66 0 1 0 C1 3.63 1 7.26 1 11 C0.01 9.68 -0.98 8.36 -2 7 C-1.1875 3.25 -1.1875 3.25 0 0 Z " fill="#B0D27D" transform="translate(53,322)" />
<path d="M0 0 C-0.33 0.99 -0.66 1.98 -1 3 C-1.99 3 -2.98 3 -4 3 C-4 3.66 -4 4.32 -4 5 C-4.99 5.33 -5.98 5.66 -7 6 C-6.6875 4.125 -6.6875 4.125 -6 2 C-3 0 -3 0 0 0 Z " fill="#C6DE96" transform="translate(600,308)" />
<path d="M0 0 C2.31 1.98 4.62 3.96 7 6 C6.34 6.66 5.68 7.32 5 8 C4.67 7.34 4.34 6.68 4 6 C1.98330173 4.86649466 1.98330173 4.86649466 0 4 C0 2.68 0 1.36 0 0 Z " fill="#C4D998" transform="translate(107,260)" />
<path d="M0 0 C0.99 0.33 1.98 0.66 3 1 C4.39712274 2.95597184 5.73779907 4.95436401 7 7 C5.35 7 3.7 7 2 7 C2 5.35 2 3.7 2 2 C1.34 2 0.68 2 0 2 C0 1.34 0 0.68 0 0 Z " fill="#C0DD95" transform="translate(222,204)" />
<path d="M0 0 C2.375 0.375 2.375 0.375 5 1 C5.66 1.66 6.32 2.32 7 3 C5.35 3.66 3.7 4.32 2 5 C1.34 3.35 0.68 1.7 0 0 Z " fill="#4F4F4F" transform="translate(422,180)" />
<path d="M0 0 C0.66 0.33 1.32 0.66 2 1 C1.67 1.99 1.34 2.98 1 4 C-2.0625 5.1875 -2.0625 5.1875 -5 6 C-4 3 -4 3 -1.9375 1.3125 C-0.9784375 0.6628125 -0.9784375 0.6628125 0 0 Z " fill="#B9D094" transform="translate(183,162)" />
<path d="M0 0 C1.32 0.33 2.64 0.66 4 1 C3.01 2.32 2.02 3.64 1 5 C-0.32 4.67 -1.64 4.34 -3 4 C-2.01 4 -1.02 4 0 4 C-0.33 3.01 -0.66 2.02 -1 1 C-0.67 0.67 -0.34 0.34 0 0 Z " fill="#C1DD99" transform="translate(130,300)" />
<path d="M0 0 C0.66 0.66 1.32 1.32 2 2 C2 3.32 2 4.64 2 6 C2.66 6.33 3.32 6.66 4 7 C3.34 7.66 2.68 8.32 2 9 C2 8.34 2 7.68 2 7 C1.34 7 0.68 7 0 7 C-0.38133299 5.0085944 -0.71325582 3.00720923 -1 1 C-0.67 0.67 -0.34 0.34 0 0 Z " fill="#AFD377" transform="translate(516,293)" />
<path d="M0 0 C0.66 0 1.32 0 2 0 C1.8125 1.875 1.8125 1.875 1 4 C-1.5625 5.25 -1.5625 5.25 -4 6 C-2.68 4.02 -1.36 2.04 0 0 Z " fill="#BDD894" transform="translate(526,278)" />
<path d="M0 0 C0.99 0 1.98 0 3 0 C2.1875 2.375 2.1875 2.375 1 5 C-0.485 5.99 -0.485 5.99 -2 7 C-2.33 6.01 -2.66 5.02 -3 4 C-2.01 4 -1.02 4 0 4 C0 2.68 0 1.36 0 0 Z " fill="#B6DB89" transform="translate(138,245)" />
<path d="M0 0 C1.65 1.65 3.3 3.3 5 5 C4.01 6.485 4.01 6.485 3 8 C1.5 6.25 1.5 6.25 0 4 C0 2.68 0 1.36 0 0 Z " fill="#BBDC8E" transform="translate(512,208)" />
<path d="M0 0 C0.33 0 0.66 0 1 0 C1 1.98 1 3.96 1 6 C0.67 6 0.34 6 0 6 C-0.33 7.65 -0.66 9.3 -1 11 C-1.33 11 -1.66 11 -2 11 C-2.33 8.36 -2.66 5.72 -3 3 C-2.34 3 -1.68 3 -1 3 C-0.67 2.01 -0.34 1.02 0 0 Z " fill="#CBE87E" transform="translate(170,214)" />
</svg>
